<svg width="28" height="28" viewBox="0 0 28 28" fill="none" xmlns="http://www.w3.org/2000/svg">
<g clip-path="url(#clip0_475_82)">
<path d="M1.12 0C0.501442 0 -0.00233841 0.501659 0.0223961 1.11972C0.154259 4.41455 0.867245 7.66326 2.13137 10.7151C3.53851 14.1123 5.60097 17.1989 8.20101 19.799C10.8011 22.399 13.8877 24.4615 17.2849 25.8686C20.3367 27.1328 23.5855 27.8457 26.8803 27.9776C27.4983 28.0023 28 27.4986 28 26.88C28 26.2614 27.4983 25.7625 26.8803 25.7357C23.8798 25.6051 20.9222 24.9507 18.1421 23.7991C15.0167 22.5046 12.177 20.6071 9.78493 18.2151C7.39289 15.823 5.49543 12.9833 4.20086 9.85793C3.04932 7.07784 2.39489 4.12022 2.26434 1.11967C2.23746 0.501699 1.73856 0 1.12 0Z" fill="url(#paint0_linear_475_82)"/>
</g>
<defs>
<linearGradient id="paint0_linear_475_82" x1="28" y1="28" x2="0" y2="0" gradientUnits="userSpaceOnUse">
<stop stop-color="#FFA823"/>
<stop offset="1" stop-color="#891AB4"/>
</linearGradient>
<clipPath id="clip0_475_82">
<rect width="28" height="28" fill="white"/>
</clipPath>
</defs>
</svg>
